<svg width="40" height="40" viewBox="0 0 40 40" fill="none" xmlns="http://www.w3.org/2000/svg">
<rect width="40" height="40" rx="8" fill="#FFCC40"/>
<path fill-rule="evenodd" clip-rule="evenodd" d="M28.253 15.497C28.0063 12.9368 25.7962 12.0785 23.0058 11.8341L23.0057 8.28268L20.8435 8.28305L20.8436 11.7408C20.2759 11.7408 19.695 11.752 19.1179 11.7635L19.1182 8.28283L16.9577 8.28276L16.9569 11.8331C16.4888 11.8427 16.0292 11.8514 15.5811 11.8517L15.5808 11.8407L12.5993 11.8396L12.5998 14.1484C12.5998 14.1484 14.1962 14.118 14.1696 14.1474C15.0452 14.1476 15.3308 14.6558 15.4131 15.0946L15.4133 19.1404C15.4737 19.1407 15.5525 19.1432 15.6418 19.1555L15.414 19.1556L15.4129 24.8235C15.3745 25.099 15.2125 25.5384 14.6007 25.5395C14.6284 25.564 13.0293 25.539 13.0293 25.539L12.6 28.1212L15.4137 28.121C15.7314 28.1214 16.0461 28.1248 16.3572 28.1282L16.3573 28.1282C16.5588 28.1304 16.7589 28.1325 16.9574 28.1339L16.9585 31.7262L19.1178 31.7266L19.1184 28.1726C19.7107 28.185 20.2845 28.1897 20.8446 28.1892L20.8437 31.7267L23.0054 31.7264L23.0061 28.141C26.6403 27.9325 29.1845 27.0168 29.4994 23.6048C29.7544 20.8568 28.4623 19.6304 26.3991 19.1344C27.6521 18.4951 28.4357 17.3706 28.2525 15.4971L28.253 15.497ZM25.2279 23.1773C25.2284 25.641 21.3575 25.5866 19.588 25.5618C19.4295 25.5596 19.2879 25.5576 19.1674 25.5577L19.168 20.7987C19.3152 20.7988 19.4941 20.7945 19.6968 20.7898C21.5103 20.7469 25.227 20.6592 25.2284 23.1771L25.2279 23.1773ZM19.5237 18.6245C21.0011 18.6487 24.2214 18.7014 24.222 16.463C24.2223 14.1732 21.1242 14.2555 19.6111 14.2957C19.441 14.3002 19.2909 14.3042 19.1675 14.3042L19.1674 18.6203C19.2693 18.6203 19.3893 18.6223 19.5237 18.6245Z" fill="#F4FFFC"/>
</svg>
